<?xml version="1.0" encoding="utf-8"?>
<!-- Generator: Adobe Illustrator 27.9.0, SVG Export Plug-In . SVG Version: 6.00 Build 0)  -->
<svg version="1.1" id="Layer_1" xmlns="http://www.w3.org/2000/svg" xmlns:xlink="http://www.w3.org/1999/xlink" x="0px" y="0px"
	 viewBox="0 0 1336 422" style="enable-background:new 0 0 1336 422;" xml:space="preserve">
<style type="text/css">
	.st0{fill:#FFFFFF;}
</style>
<g>
	<g>
		<path class="st0" d="M16.63,343.9h5.25v23.07c2.13-2.8,4.46-4.9,7.02-6.28c2.55-1.39,5.31-2.08,8.29-2.08
			c3.05,0,5.76,0.78,8.12,2.33c2.36,1.55,4.11,3.63,5.23,6.25c1.13,2.61,1.69,6.71,1.69,12.29v21.01h-5.25V381
			c0-4.7-0.19-7.84-0.56-9.42c-0.65-2.7-1.83-4.73-3.55-6.1c-1.71-1.36-3.96-2.05-6.73-2.05c-3.18,0-6.02,1.05-8.53,3.15
			s-4.17,4.7-4.97,7.8c-0.5,2-0.75,5.7-0.75,11.11v14.97h-5.25V343.9z"/>
		<path class="st0" d="M109.2,358.6c6.29,0,11.5,2.28,15.63,6.83c3.76,4.15,5.64,9.07,5.64,14.74c0,5.7-1.99,10.69-5.96,14.95
			c-3.97,4.26-9.08,6.4-15.31,6.4c-6.26,0-11.38-2.13-15.35-6.4c-3.97-4.26-5.96-9.25-5.96-14.95c0-5.65,1.88-10.56,5.64-14.71
			C97.66,360.89,102.88,358.6,109.2,358.6z M109.18,363.74c-4.37,0-8.12,1.61-11.26,4.84c-3.14,3.23-4.71,7.13-4.71,11.71
			c0,2.95,0.72,5.7,2.15,8.25c1.43,2.55,3.36,4.52,5.8,5.91c2.43,1.39,5.11,2.08,8.02,2.08c2.91,0,5.58-0.69,8.02-2.08
			s4.37-3.36,5.8-5.91c1.43-2.55,2.15-5.3,2.15-8.25c0-4.58-1.58-8.48-4.73-11.71C117.26,365.36,113.52,363.74,109.18,363.74z"/>
		<path class="st0" d="M165.86,359.65h5.25v19.06c0,4.65,0.25,7.85,0.75,9.6c0.75,2.5,2.19,4.48,4.3,5.93
			c2.12,1.45,4.64,2.18,7.57,2.18s5.42-0.71,7.46-2.12c2.04-1.41,3.45-3.27,4.23-5.57c0.53-1.58,0.79-4.92,0.79-10.02v-19.06h5.36
			v20.03c0,5.63-0.66,9.87-1.97,12.72c-1.31,2.85-3.29,5.08-5.93,6.7c-2.64,1.61-5.95,2.42-9.92,2.42c-3.98,0-7.3-0.81-9.96-2.42
			c-2.66-1.61-4.65-3.86-5.97-6.75c-1.31-2.89-1.97-7.23-1.97-13.04V359.65z"/>
		<path class="st0" d="M259.88,364.12l-3.38,3.49c-2.81-2.73-5.56-4.09-8.24-4.09c-1.71,0-3.17,0.56-4.38,1.69
			c-1.22,1.13-1.82,2.44-1.82,3.94c0,1.33,0.5,2.59,1.5,3.79c1,1.23,3.11,2.66,6.32,4.31c3.91,2.03,6.57,3.98,7.97,5.85
			c1.38,1.9,2.07,4.04,2.07,6.42c0,3.35-1.18,6.19-3.53,8.52c-2.35,2.33-5.3,3.49-8.83,3.49c-2.36,0-4.6-0.51-6.74-1.54
			c-2.14-1.03-3.91-2.44-5.32-4.24l3.3-3.75c2.68,3.03,5.53,4.54,8.54,4.54c2.11,0,3.9-0.68,5.38-2.03
			c1.48-1.35,2.22-2.94,2.22-4.77c0-1.5-0.49-2.84-1.47-4.01c-0.98-1.15-3.18-2.6-6.62-4.35c-3.69-1.9-6.19-3.78-7.52-5.63
			c-1.33-1.85-1.99-3.96-1.99-6.34c0-3.1,1.06-5.68,3.18-7.73c2.12-2.05,4.79-3.08,8.02-3.08
			C252.28,358.6,256.07,360.44,259.88,364.12z"/>
		<path class="st0" d="M297.65,342.85c1.2,0,2.22,0.43,3.06,1.28c0.85,0.85,1.27,1.88,1.27,3.08c0,1.18-0.42,2.19-1.27,3.04
			c-0.85,0.85-1.87,1.28-3.06,1.28c-1.17,0-2.18-0.43-3.03-1.28c-0.85-0.85-1.27-1.86-1.27-3.04c0-1.2,0.42-2.23,1.27-3.08
			C295.47,343.27,296.47,342.85,297.65,342.85z M295.04,359.65h5.25v40.82h-5.25V359.65z"/>
		<path class="st0" d="M338.31,359.65h5.25v7.32c2.1-2.8,4.43-4.9,6.98-6.28c2.55-1.39,5.33-2.08,8.33-2.08
			c3.05,0,5.76,0.78,8.12,2.33c2.36,1.55,4.11,3.64,5.23,6.27c1.13,2.63,1.69,6.72,1.69,12.27v21.01h-5.25V381
			c0-4.7-0.2-7.84-0.58-9.42c-0.61-2.7-1.78-4.73-3.5-6.1c-1.73-1.36-3.98-2.05-6.75-2.05c-3.18,0-6.02,1.05-8.54,3.15
			c-2.51,2.1-4.17,4.7-4.97,7.8c-0.5,2.03-0.75,5.73-0.75,11.11v14.97h-5.25V359.65z"/>
		<path class="st0" d="M446.67,359.65h5.25v32.53c0,5.73-0.5,9.92-1.5,12.57c-1.38,3.75-3.76,6.64-7.17,8.67
			c-3.4,2.03-7.49,3.04-12.27,3.04c-3.5,0-6.65-0.5-9.44-1.49c-2.79-0.99-5.06-2.32-6.81-3.99c-1.75-1.67-3.36-4.11-4.84-7.32h5.7
			c1.55,2.7,3.56,4.7,6.01,6c2.45,1.3,5.5,1.95,9.13,1.95c3.58,0,6.61-0.67,9.07-2c2.47-1.33,4.23-3.01,5.28-5.03
			c1.05-2.02,1.58-5.28,1.58-9.78v-2.1c-1.98,2.5-4.39,4.42-7.25,5.76c-2.85,1.34-5.88,2.01-9.09,2.01c-3.76,0-7.29-0.93-10.59-2.8
			c-3.31-1.86-5.86-4.37-7.66-7.52c-1.8-3.15-2.7-6.62-2.7-10.39c0-3.78,0.94-7.3,2.82-10.56c1.88-3.26,4.47-5.85,7.79-7.75
			c3.32-1.9,6.82-2.85,10.5-2.85c3.05,0,5.9,0.63,8.54,1.89c2.64,1.26,5.19,3.35,7.64,6.25V359.65z M431.18,363.67
			c-2.98,0-5.74,0.72-8.29,2.16c-2.55,1.44-4.55,3.43-6,5.97c-1.45,2.54-2.18,5.28-2.18,8.23c0,4.48,1.5,8.18,4.5,11.11
			c3,2.93,6.89,4.39,11.67,4.39c4.83,0,8.71-1.45,11.65-4.35c2.94-2.9,4.41-6.72,4.41-11.44c0-3.08-0.68-5.82-2.03-8.23
			c-1.35-2.41-3.26-4.32-5.74-5.72C436.69,364.37,434.03,363.67,431.18,363.67z"/>
		<path class="st0" d="M580.44,359.65v40.82h-5.18v-7.02c-2.2,2.68-4.67,4.69-7.41,6.04c-2.74,1.35-5.73,2.03-8.98,2.03
			c-5.78,0-10.71-2.09-14.8-6.28c-4.09-4.19-6.13-9.29-6.13-15.29c0-5.88,2.06-10.9,6.19-15.08c4.13-4.18,9.09-6.27,14.89-6.27
			c3.35,0,6.38,0.71,9.1,2.14c2.71,1.42,5.1,3.56,7.15,6.42v-7.5H580.44z M559.45,363.67c-2.92,0-5.62,0.72-8.09,2.15
			c-2.47,1.44-4.44,3.45-5.9,6.05s-2.19,5.35-2.19,8.24c0,2.87,0.74,5.62,2.21,8.24c1.47,2.62,3.45,4.67,5.94,6.13
			c2.49,1.46,5.15,2.19,8,2.19c2.87,0,5.6-0.72,8.17-2.17c2.57-1.45,4.55-3.41,5.94-5.88c1.39-2.47,2.08-5.26,2.08-8.36
			c0-4.72-1.56-8.67-4.67-11.84C567.82,365.25,563.99,363.67,559.45,363.67z"/>
		<path class="st0" d="M618.26,359.65h5.25v19.06c0,4.65,0.25,7.85,0.75,9.6c0.75,2.5,2.19,4.48,4.3,5.93
			c2.12,1.45,4.64,2.18,7.57,2.18c2.93,0,5.42-0.71,7.46-2.12c2.04-1.41,3.45-3.27,4.23-5.57c0.53-1.58,0.79-4.92,0.79-10.02v-19.06
			h5.36v20.03c0,5.63-0.66,9.87-1.97,12.72c-1.31,2.85-3.29,5.08-5.93,6.7c-2.64,1.61-5.95,2.42-9.92,2.42
			c-3.98,0-7.3-0.81-9.96-2.42c-2.66-1.61-4.65-3.86-5.97-6.75c-1.31-2.89-1.97-7.23-1.97-13.04V359.65z"/>
		<path class="st0" d="M712.27,364.12l-3.38,3.49c-2.81-2.73-5.55-4.09-8.24-4.09c-1.71,0-3.17,0.56-4.38,1.69
			c-1.22,1.13-1.82,2.44-1.82,3.94c0,1.33,0.5,2.59,1.5,3.79c1,1.23,3.11,2.66,6.32,4.31c3.91,2.03,6.57,3.98,7.97,5.85
			c1.38,1.9,2.07,4.04,2.07,6.42c0,3.35-1.18,6.19-3.53,8.52c-2.35,2.33-5.3,3.49-8.83,3.49c-2.36,0-4.6-0.51-6.75-1.54
			c-2.14-1.03-3.91-2.44-5.32-4.24l3.3-3.75c2.68,3.03,5.53,4.54,8.54,4.54c2.11,0,3.9-0.68,5.38-2.03
			c1.48-1.35,2.22-2.94,2.22-4.77c0-1.5-0.49-2.84-1.47-4.01c-0.98-1.15-3.18-2.6-6.62-4.35c-3.69-1.9-6.19-3.78-7.52-5.63
			c-1.33-1.85-1.99-3.96-1.99-6.34c0-3.1,1.06-5.68,3.18-7.73c2.12-2.05,4.79-3.08,8.02-3.08
			C704.68,358.6,708.46,360.44,712.27,364.12z"/>
		<path class="st0" d="M752.84,344.5h5.25v15.16h8.33v4.54h-8.33v36.28h-5.25v-36.28h-7.17v-4.54h7.17V344.5z"/>
		<path class="st0" d="M799.45,359.65h5.36v5.96c1.6-2.35,3.29-4.11,5.07-5.27c1.78-1.16,3.63-1.74,5.55-1.74
			c1.45,0,3,0.46,4.65,1.39l-2.74,4.43c-1.1-0.47-2.03-0.71-2.78-0.71c-1.75,0-3.44,0.72-5.06,2.16c-1.63,1.44-2.86,3.67-3.71,6.7
			c-0.65,2.33-0.98,7.03-0.98,14.11v13.81h-5.36V359.65z"/>
		<path class="st0" d="M889.77,359.65v40.82h-5.18v-7.02c-2.2,2.68-4.67,4.69-7.41,6.04c-2.74,1.35-5.73,2.03-8.98,2.03
			c-5.78,0-10.71-2.09-14.8-6.28c-4.09-4.19-6.13-9.29-6.13-15.29c0-5.88,2.06-10.9,6.19-15.08c4.13-4.18,9.09-6.27,14.89-6.27
			c3.35,0,6.38,0.71,9.1,2.14c2.71,1.42,5.1,3.56,7.15,6.42v-7.5H889.77z M868.78,363.67c-2.92,0-5.62,0.72-8.09,2.15
			c-2.47,1.44-4.44,3.45-5.9,6.05c-1.46,2.6-2.19,5.35-2.19,8.24c0,2.87,0.74,5.62,2.21,8.24c1.47,2.62,3.45,4.67,5.94,6.13
			c2.48,1.46,5.15,2.19,8,2.19c2.87,0,5.6-0.72,8.17-2.17c2.57-1.45,4.55-3.41,5.94-5.88c1.39-2.47,2.08-5.26,2.08-8.36
			c0-4.72-1.56-8.67-4.67-11.84C877.15,365.25,873.32,363.67,868.78,363.67z"/>
		<path class="st0" d="M927.74,343.9h5.25v56.58h-5.25V343.9z"/>
		<path class="st0" d="M973.25,342.85c1.2,0,2.22,0.43,3.06,1.28c0.85,0.85,1.27,1.88,1.27,3.08c0,1.18-0.42,2.19-1.27,3.04
			c-0.85,0.85-1.87,1.28-3.06,1.28c-1.17,0-2.18-0.43-3.03-1.28c-0.85-0.85-1.27-1.86-1.27-3.04c0-1.2,0.42-2.23,1.27-3.08
			C971.08,343.27,972.08,342.85,973.25,342.85z M970.65,359.65h5.25v40.82h-5.25V359.65z"/>
		<path class="st0" d="M1054,359.65v40.82h-5.18v-7.02c-2.2,2.68-4.67,4.69-7.41,6.04c-2.74,1.35-5.73,2.03-8.98,2.03
			c-5.78,0-10.71-2.09-14.8-6.28c-4.09-4.19-6.13-9.29-6.13-15.29c0-5.88,2.06-10.9,6.19-15.08c4.13-4.18,9.09-6.27,14.89-6.27
			c3.35,0,6.38,0.71,9.1,2.14c2.71,1.42,5.1,3.56,7.15,6.42v-7.5H1054z M1033.01,363.67c-2.92,0-5.62,0.72-8.09,2.15
			c-2.47,1.44-4.44,3.45-5.9,6.05c-1.46,2.6-2.19,5.35-2.19,8.24c0,2.87,0.74,5.62,2.21,8.24c1.47,2.62,3.45,4.67,5.94,6.13
			c2.48,1.46,5.15,2.19,8,2.19c2.87,0,5.6-0.72,8.17-2.17c2.57-1.45,4.55-3.41,5.94-5.88c1.39-2.47,2.08-5.26,2.08-8.36
			c0-4.72-1.56-8.67-4.67-11.84C1041.38,365.25,1037.56,363.67,1033.01,363.67z"/>
	</g>
	<g>
		<path class="st0" d="M150.52,181.11c-11.39-7.75-14.47-11.63-26.11-11.63c-6.3,0-12.18,1.09-17.63,3.27
			c-5.45,2.18-10.24,5.27-14.36,9.27c-4.12,4-7.33,8.73-9.63,14.18c-2.31,5.45-3.45,11.58-3.45,18.36c0,6.54,1.15,12.54,3.45,17.99
			c2.3,5.45,5.45,10.18,9.45,14.18s8.78,7.09,14.36,9.27c5.57,2.18,11.51,3.27,17.81,3.27c12.36,0,15.44-4.23,26.11-12.72
			l23.76,49.07c-26.02,14.75-46.95,17.45-61.49,17.45c-13.58,0-26.48-2.31-38.71-6.91c-12.24-4.6-23.02-11.21-32.35-19.81
			c-9.33-8.6-16.78-18.9-22.35-30.89c-5.58-12-8.36-25.38-8.36-40.17c0-14.78,2.66-28.29,8-40.53c5.33-12.23,12.6-22.78,21.81-31.63
			c9.21-8.84,20.17-15.75,32.9-20.72c12.72-4.97,26.35-7.45,40.89-7.45c15.99,0,38.78,1.82,59.68,17.08L150.52,181.11z"/>
		<path class="st0" d="M148.25,212.37c0-13.81,2.78-26.71,8.36-38.71c5.57-12,13.32-22.41,23.26-31.26
			c9.93-8.84,21.75-15.81,35.44-20.9c13.69-5.09,28.65-7.64,44.89-7.64c15.99,0,30.83,2.49,44.53,7.45
			c13.69,4.97,25.56,11.88,35.62,20.72c10.05,8.85,17.87,19.39,23.44,31.63c5.57,12.24,8.36,25.75,8.36,40.53
			c0,14.78-2.85,28.29-8.54,40.53c-5.7,12.24-13.51,22.78-23.45,31.62c-9.94,8.85-21.87,15.69-35.8,20.54
			c-13.94,4.84-29.02,7.27-45.25,7.27c-15.99,0-30.78-2.43-44.35-7.27c-13.57-4.85-25.26-11.75-35.08-20.72
			c-9.82-8.96-17.51-19.68-23.08-32.17C151.03,241.52,148.25,227.64,148.25,212.37z M217.68,213.1c0,6.3,1.15,12.06,3.45,17.27
			c2.3,5.21,5.33,9.76,9.09,13.63c3.75,3.88,8.23,6.91,13.45,9.09c5.21,2.18,10.72,3.27,16.54,3.27c5.82,0,11.33-1.09,16.54-3.27
			c5.21-2.18,9.69-5.21,13.45-9.09c3.76-3.87,6.78-8.42,9.09-13.63c2.3-5.21,3.45-10.84,3.45-16.9c0-5.82-1.15-11.33-3.45-16.54
			c-2.31-5.21-5.33-9.75-9.09-13.63c-3.76-3.87-8.24-6.91-13.45-9.09c-5.21-2.18-10.72-3.27-16.54-3.27
			c-5.82,0-11.33,1.09-16.54,3.27c-5.21,2.18-9.69,5.22-13.45,9.09c-3.76,3.88-6.79,8.36-9.09,13.45
			C218.83,201.84,217.68,207.29,217.68,213.1z"/>
		<path class="st0" d="M340.18,310.38h187.96v31.66H340.18V310.38z"/>
		<path class="st0" d="M575.35,5.55v301.7h-65.79V5.55H575.35z"/>
		<path class="st0" d="M577.78,49.17c0-5.09,0.96-9.87,2.91-14.36c1.94-4.48,4.6-8.42,8-11.81c3.39-3.39,7.33-6.05,11.81-7.99
			c4.48-1.94,9.27-2.91,14.36-2.91c5.09,0,9.87,0.97,14.36,2.91c4.48,1.94,8.42,4.6,11.81,7.99c3.39,3.4,6.06,7.33,8,11.81
			c1.94,4.49,2.91,9.27,2.91,14.36s-0.97,9.88-2.91,14.36c-1.94,4.48-4.61,8.42-8,11.81c-3.4,3.4-7.33,6.06-11.81,8
			c-4.49,1.94-9.27,2.91-14.36,2.91c-5.09,0-9.88-0.97-14.36-2.91c-4.49-1.94-8.42-4.6-11.81-8c-3.4-3.39-6.06-7.33-8-11.81
			C578.75,59.04,577.78,54.25,577.78,49.17z M647.94,120.77v186.47h-65.79V120.77H647.94z"/>
		<path class="st0" d="M706.06,120.77l44.35,95.6l45.07-95.6h73.42l-97.05,186.47h-43.98l-95.96-186.47H706.06z"/>
		<path class="st0" d="M841.38,49.17c0-5.09,0.96-9.87,2.91-14.36c1.94-4.48,4.6-8.42,8-11.81c3.39-3.39,7.33-6.05,11.81-7.99
			c4.48-1.94,9.27-2.91,14.36-2.91c5.09,0,9.87,0.97,14.36,2.91c4.48,1.94,8.42,4.6,11.81,7.99c3.39,3.4,6.06,7.33,8,11.81
			c1.94,4.49,2.91,9.27,2.91,14.36s-0.97,9.88-2.91,14.36c-1.94,4.48-4.61,8.42-8,11.81c-3.4,3.4-7.33,6.06-11.81,8
			c-4.49,1.94-9.27,2.91-14.36,2.91c-5.09,0-9.88-0.97-14.36-2.91c-4.49-1.94-8.42-4.6-11.81-8c-3.4-3.39-6.06-7.33-8-11.81
			C842.35,59.04,841.38,54.25,841.38,49.17z M911.54,120.77v186.47h-65.79V120.77H911.54z"/>
		<path class="st0" d="M921.97,120.77h65.79v23.63c8.96-10.91,18.05-18.23,27.26-21.99c9.21-3.76,19.99-5.64,32.35-5.64
			c13.09,0,24.29,2.13,33.62,6.36c9.33,4.24,17.27,10.24,23.81,17.99c5.33,6.31,8.96,13.33,10.9,21.08
			c1.94,7.76,2.91,16.6,2.91,26.54v118.5h-65.79V213.1c0-9.21-0.67-16.66-2-22.35c-1.33-5.69-3.7-10.24-7.09-13.63
			c-2.91-2.91-6.18-4.97-9.82-6.18c-3.63-1.21-7.51-1.82-11.63-1.82c-11.15,0-19.69,3.34-25.62,10c-5.94,6.67-8.91,16.18-8.91,28.53
			v99.6h-65.79V120.77z"/>
		<path class="st0" d="M1325,120.77v173.75c0,10.42-0.61,19.75-1.82,27.99c-1.22,8.24-2.91,15.5-5.09,21.81
			c-2.91,8-7.45,15.45-13.63,22.35c-6.18,6.91-13.63,12.9-22.35,17.99s-18.6,9.09-29.63,12c-11.03,2.9-22.96,4.36-35.8,4.36
			c-14.54,0-27.87-1.82-39.98-5.45c-12.12-3.63-22.72-8.66-31.81-15.08c-9.09-6.43-16.54-13.94-22.35-22.54
			c-5.82-8.6-9.7-17.99-11.63-28.17h74.15c4.6,12.36,15.02,18.54,31.26,18.54c13.81,0,24.41-3.88,31.81-11.63
			c7.39-7.76,11.09-18.54,11.09-32.35v-17.81c-4.85,4.61-9.51,8.42-13.99,11.45c-4.49,3.03-9.03,5.51-13.63,7.45
			c-4.61,1.94-9.45,3.33-14.54,4.18c-5.09,0.85-10.67,1.28-16.72,1.28c-13.33,0-25.57-2.31-36.71-6.91
			c-11.15-4.6-20.78-11.02-28.9-19.26c-8.12-8.24-14.42-18.11-18.9-29.63c-4.49-11.51-6.73-24.29-6.73-38.35
			c0-14.3,2.42-27.56,7.27-39.8c4.84-12.23,11.45-22.9,19.81-31.99c8.36-9.09,18.29-16.23,29.81-21.45
			c11.51-5.21,24.05-7.82,37.62-7.82c22.05,0,40.59,8.24,55.62,24.72v-19.63H1325z M1177.42,213.1c0,6.06,1.09,11.69,3.27,16.9
			s5.15,9.75,8.91,13.63c3.75,3.88,8.24,6.91,13.45,9.09c5.21,2.18,10.84,3.27,16.9,3.27c5.81,0,11.33-1.09,16.54-3.27
			c5.21-2.18,9.69-5.21,13.45-9.09c3.75-3.88,6.78-8.42,9.09-13.63c2.3-5.21,3.45-10.72,3.45-16.54c0-6.06-1.15-11.63-3.45-16.72
			c-2.31-5.09-5.4-9.57-9.27-13.45c-3.88-3.87-8.42-6.91-13.63-9.09c-5.21-2.18-10.6-3.27-16.18-3.27c-5.82,0-11.27,1.15-16.36,3.45
			c-5.09,2.31-9.57,5.34-13.45,9.09c-3.88,3.76-6.97,8.18-9.27,13.27C1178.57,201.84,1177.42,207.29,1177.42,213.1z"/>
	</g>
</g>
</svg>
