<svg width="80" height="80" viewBox="0 0 80 80" fill="none" xmlns="http://www.w3.org/2000/svg">
<rect width="80" height="80" rx="7" fill="#101828"/>
<path d="M25.0983 20.5851C23.6791 19.6194 23.2953 19.1359 21.8449 19.1359C21.06 19.1359 20.3273 19.2717 19.6482 19.5434C18.9691 19.815 18.3723 20.2 17.8589 20.6984C17.3456 21.1968 16.9456 21.7862 16.659 22.4653C16.3712 23.1444 16.2292 23.9082 16.2292 24.753C16.2292 25.5679 16.3724 26.3155 16.659 26.9946C16.9456 27.6736 17.3381 28.263 17.8365 28.7614C18.3349 29.2598 18.9305 29.6448 19.6258 29.9165C20.3198 30.1881 21.06 30.3239 21.8449 30.3239C23.385 30.3239 23.7688 29.7969 25.0983 28.739L28.0588 34.8532C24.8167 36.6911 22.2088 37.0275 20.3971 37.0275C18.705 37.0275 17.0976 36.7397 15.5737 36.1665C14.0486 35.5933 12.7054 34.7697 11.5429 33.6981C10.3804 32.6266 9.45207 31.3432 8.75804 29.8492C8.06276 28.354 7.71637 26.6868 7.71637 24.8439C7.71637 23.0023 8.04781 21.319 8.71318 19.7938C9.37731 18.27 10.2832 16.9554 11.4307 15.8527C12.5783 14.7512 13.944 13.8902 15.5301 13.2709C17.1151 12.6517 18.8134 12.3427 20.6251 12.3427C22.6175 12.3427 25.4572 12.5694 28.0613 14.4708L25.0983 20.5851Z" fill="white"/>
<path d="M24.8154 24.4802C24.8154 22.7594 25.1618 21.1521 25.8571 19.6569C26.5511 18.1616 27.5168 16.8645 28.7553 15.7618C29.9926 14.6603 31.4654 13.7919 33.1712 13.1576C34.877 12.5234 36.7411 12.2057 38.7646 12.2057C40.757 12.2057 42.6061 12.5159 44.3131 13.134C46.0189 13.7532 47.4979 14.6142 48.7514 15.7157C50.0037 16.8184 50.978 18.1317 51.6721 19.6569C52.3661 21.182 52.7137 22.8654 52.7137 24.707C52.7137 26.5486 52.3586 28.232 51.6496 29.7571C50.9394 31.2822 49.9663 32.5955 48.7277 33.697C47.4892 34.7997 46.0027 35.652 44.267 36.2563C42.53 36.8594 40.6511 37.1622 38.6288 37.1622C36.6364 37.1622 34.7935 36.8594 33.1027 36.2563C31.4118 35.652 29.9552 34.7922 28.7317 33.6746C27.5081 32.5581 26.5499 31.2224 25.8559 29.6661C25.1618 28.1111 24.8154 26.3829 24.8154 24.4802ZM33.4665 24.5712C33.4665 25.3561 33.6098 26.0739 33.8964 26.723C34.183 27.3722 34.5605 27.9391 35.029 28.4213C35.4963 28.9048 36.0545 29.2823 36.7049 29.554C37.3541 29.8256 38.0406 29.9614 38.7658 29.9614C39.491 29.9614 40.1776 29.8256 40.8267 29.554C41.4759 29.2823 42.0341 28.9048 42.5026 28.4213C42.9711 27.9391 43.3474 27.3722 43.6353 26.723C43.9218 26.0739 44.0651 25.3723 44.0651 24.6173C44.0651 23.8921 43.9218 23.2055 43.6353 22.5563C43.3474 21.9072 42.9711 21.3415 42.5026 20.858C42.0341 20.3758 41.4759 19.997 40.8267 19.7254C40.1776 19.4538 39.491 19.318 38.7658 19.318C38.0406 19.318 37.3541 19.4538 36.7049 19.7254C36.0557 19.997 35.4975 20.3758 35.029 20.858C34.5605 21.3415 34.183 21.8997 33.8964 22.5339C33.6098 23.1669 33.4665 23.846 33.4665 24.5712Z" fill="white"/>
<path d="M48.7302 36.6924H72.1504V40.6373H48.7302V36.6924Z" fill="white"/>
<path d="M13.4813 38.8693V63.082H7.71637V38.8693H13.4813Z" fill="white"/>
<path d="M13.4813 41.9104C13.4813 41.4928 13.5559 41.1007 13.7075 40.7323C13.8583 40.3648 14.0651 40.0416 14.3294 39.7635C14.5929 39.4854 14.8992 39.2672 15.2475 39.108C15.5957 38.9489 15.9681 38.8693 16.3638 38.8693C16.7594 38.8693 17.131 38.9489 17.4801 39.108C17.8283 39.2672 18.1346 39.4854 18.3981 39.7635C18.6616 40.0424 18.8692 40.3648 19.02 40.7323C19.1708 41.1007 19.2462 41.4928 19.2462 41.9104C19.2462 42.3279 19.1708 42.7209 19.02 43.0884C18.8692 43.4559 18.6616 43.7791 18.3981 44.0572C18.1338 44.3362 17.8283 44.5544 17.4801 44.7135C17.131 44.8727 16.7594 44.9522 16.3638 44.9522C15.9681 44.9522 15.5957 44.8727 15.2475 44.7135C14.8984 44.5544 14.5929 44.3362 14.3294 44.0572C14.0651 43.7791 13.8583 43.4559 13.7075 43.0884C13.5567 42.7209 13.4813 42.3279 13.4813 41.9104ZM18.9353 47.7849V63.082H13.821V47.7849H18.9353Z" fill="white"/>
<path d="M23.073 48.0933L26.7411 55.7778L30.4687 48.0933H36.5411L28.5143 63.0821H24.8769L16.9403 48.0933H23.073Z" fill="white"/>
<path d="M34.2351 41.9104C34.2351 41.4928 34.3097 41.1007 34.4613 40.7323C34.6121 40.3648 34.8189 40.0416 35.0832 39.7635C35.3467 39.4854 35.653 39.2672 36.0012 39.108C36.3495 38.9489 36.7219 38.8693 37.1175 38.8693C37.5132 38.8693 37.8848 38.9489 38.2338 39.108C38.5821 39.2672 38.8884 39.4854 39.1519 39.7635C39.4154 40.0424 39.623 40.3648 39.7738 40.7323C39.9246 41.1007 40 41.4928 40 41.9104C40 42.3279 39.9246 42.7209 39.7738 43.0884C39.623 43.4559 39.4154 43.7791 39.1519 44.0572C38.8876 44.3362 38.5821 44.5544 38.2338 44.7135C37.8848 44.8727 37.5132 44.9522 37.1175 44.9522C36.7219 44.9522 36.3495 44.8727 36.0012 44.7135C35.6522 44.5544 35.3467 44.3362 35.0832 44.0572C34.8189 43.7791 34.6121 43.4559 34.4613 43.0884C34.3105 42.7209 34.2351 42.3279 34.2351 41.9104ZM39.6891 47.7849V63.082H34.5748V47.7849H39.6891Z" fill="white"/>
<path d="M40.0008 48.408H45.4011V50.2675C46.1366 49.409 46.8827 48.8329 47.6387 48.5371C48.3947 48.2412 49.2796 48.0933 50.2941 48.0933C51.3686 48.0933 52.288 48.2609 53.0538 48.5937C53.8197 48.9274 54.4714 49.3995 55.0082 50.0094C55.4457 50.5059 55.7437 51.0583 55.9029 51.6681C56.0622 52.2788 56.1418 52.9744 56.1418 53.7566V63.0813H50.7415V55.6734C50.7415 54.9487 50.6865 54.3625 50.5773 53.9147C50.4682 53.467 50.2736 53.1089 49.9954 52.8422C49.7565 52.6132 49.4881 52.4511 49.1893 52.3559C48.8913 52.2607 48.5729 52.2127 48.2347 52.2127C47.3194 52.2127 46.6184 52.4755 46.1317 52.9996C45.6441 53.5244 45.4003 54.2728 45.4003 55.2446V63.0821H40V48.408H40.0008Z" fill="white"/>
<path d="M72.2836 48.4833V61.8233C72.2836 62.6233 72.2347 63.3396 72.1378 63.9723C72.04 64.6049 71.9047 65.1623 71.73 65.6468C71.4969 66.261 71.1332 66.833 70.6382 67.3627C70.1431 67.8932 69.5464 68.3531 68.8478 68.7439C68.1493 69.1347 67.3579 69.4418 66.4743 69.6653C65.5907 69.8879 64.6351 70 63.6065 70C62.4418 70 61.374 69.8603 60.4039 69.5816C59.433 69.3029 58.5839 68.9167 57.8558 68.4238C57.1276 67.9301 56.5308 67.3535 56.0654 66.6932C55.5992 66.0329 55.2884 65.312 55.1338 64.5304H61.0736C61.4421 65.4794 62.2768 65.9539 63.5777 65.9539C64.6839 65.9539 65.5331 65.656 66.1259 65.0609C66.7178 64.4652 67.0142 63.6375 67.0142 62.5772V61.2098C66.6257 61.5638 66.2524 61.8563 65.8935 62.0889C65.5339 62.3216 65.1702 62.512 64.8017 62.6609C64.4324 62.8098 64.0447 62.9166 63.637 62.9818C63.2292 63.0471 62.7822 63.0801 62.2976 63.0801C61.2298 63.0801 60.2493 62.9028 59.3569 62.5496C58.4638 62.1964 57.6923 61.7035 57.0419 61.0709C56.3914 60.4382 55.8868 59.6804 55.5279 58.796C55.1682 57.9123 54.9888 56.931 54.9888 55.8516C54.9888 54.7537 55.1826 53.7356 55.5711 52.7958C55.9588 51.8569 56.4884 51.0377 57.158 50.3398C57.8277 49.6419 58.6232 49.0937 59.546 48.6937C60.468 48.2936 61.4725 48.0933 62.5595 48.0933C64.3259 48.0933 65.811 48.7259 67.015 49.9912V48.4841H72.2836V48.4833ZM60.4616 55.5721C60.4616 56.0374 60.5489 56.4696 60.7235 56.8696C60.8982 57.2696 61.1361 57.6182 61.4373 57.9161C61.7377 58.214 62.0973 58.4466 62.5147 58.614C62.932 58.7814 63.383 58.8651 63.8685 58.8651C64.3339 58.8651 64.7761 58.7814 65.1934 58.614C65.6108 58.4466 65.9696 58.214 66.2708 57.9161C66.5712 57.6182 66.814 57.2696 66.999 56.8696C67.1832 56.4696 67.2754 56.0466 67.2754 55.5997C67.2754 55.1345 67.1832 54.7068 66.999 54.316C66.814 53.9252 66.5664 53.5813 66.2564 53.2834C65.9456 52.9863 65.5819 52.7528 65.1646 52.5855C64.7472 52.4181 64.3155 52.3344 63.8685 52.3344C63.4023 52.3344 62.9657 52.4227 62.5579 52.5993C62.1502 52.7767 61.7913 53.0093 61.4805 53.2972C61.1697 53.5859 60.9222 53.9252 60.7379 54.316C60.5537 54.7068 60.4616 55.1253 60.4616 55.5721Z" fill="white"/>
</svg>
